HIERARCHY
ROOT Pelvis
{
	OFFSET 0.000000 0.000000 0.000000
	CHANNELS 6 Xposition Yposition Zposition Zrotation Yrotation Xrotation 
	JOINT Left_hip
	{
		OFFSET 0.068973 -0.091024 -0.007589
		CHANNELS 3 Zrotation Yrotation Xrotation
		JOINT Left_knee
		{
			OFFSET 0.036482 -0.391037 -0.003979
			CHANNELS 3 Zrotation Yrotation Xrotation
			JOINT Left_ankle
			{
				OFFSET -0.012239 -0.415469 -0.043440
				CHANNELS 3 Zrotation Yrotation Xrotation
				JOINT Left_foot
				{
					OFFSET 0.023806 -0.058558 0.118702
					CHANNELS 3 Zrotation Yrotation Xrotation
					End Site
					{
						OFFSET 0.000000 0.000000 0.000000
					}
				}
			}
		}
	}
	JOINT Right_hip
	{
		OFFSET -0.066552 -0.090468 -0.003847
		CHANNELS 3 Zrotation Yrotation Xrotation
		JOINT Right_knee
		{
			OFFSET -0.042435 -0.398340 -0.006400
			CHANNELS 3 Zrotation Yrotation Xrotation
			JOINT Right_ankle
			{
				OFFSET 0.014931 -0.415421 -0.041327
				CHANNELS 3 Zrotation Yrotation Xrotation
				JOINT Right_foot
				{
					OFFSET -0.021472 -0.049410 0.121889
					CHANNELS 3 Zrotation Yrotation Xrotation
					End Site
					{
						OFFSET 0.000000 0.000000 0.000000
					}
				}
			}
		}
	}
	JOINT Spine1
	{
		OFFSET -0.002904 0.105700 -0.022855
		CHANNELS 3 Zrotation Yrotation Xrotation
		JOINT Spine2
		{
			OFFSET 0.004179 0.132554 -0.002501
			CHANNELS 3 Zrotation Yrotation Xrotation
			JOINT Spine3
			{
				OFFSET 0.001987 0.049603 0.025988
				CHANNELS 3 Zrotation Yrotation Xrotation
				JOINT Neck
				{
					OFFSET -0.003935 0.211336 -0.045638
					CHANNELS 3 Zrotation Yrotation Xrotation
					JOINT Head
					{
						OFFSET 0.003906 0.065991 0.051018
						CHANNELS 3 Zrotation Yrotation Xrotation
						End Site
						{
							OFFSET 0.000000 0.000000 0.000000
						}
					}
				}
				JOINT Left_collar
				{
					OFFSET 0.072882 0.117751 -0.036270
					CHANNELS 3 Zrotation Yrotation Xrotation
					JOINT Left_shoulder
					{
						OFFSET 0.082118 0.032630 -0.005771
						CHANNELS 3 Zrotation Yrotation Xrotation
						JOINT Left_elbow
						{
							OFFSET 0.263305 -0.015144 -0.028095
							CHANNELS 3 Zrotation Yrotation Xrotation
							JOINT Left_wrist
							{
								OFFSET 0.250741 0.010115 -0.000759
								CHANNELS 3 Zrotation Yrotation Xrotation
								JOINT Left_palm
								{
									OFFSET 0.080683 -0.009989 -0.013613
									CHANNELS 3 Zrotation Yrotation Xrotation
									End Site
									{
										OFFSET 0.000000 0.000000 0.000000
									}
								}
							}
						}
					}
				}
				JOINT Right_collar
				{
					OFFSET -0.074811 0.116132 -0.040385
					CHANNELS 3 Zrotation Yrotation Xrotation
					JOINT Right_shoulder
					{
						OFFSET -0.085089 0.032943 -0.007484
						CHANNELS 3 Zrotation Yrotation Xrotation
						JOINT Right_elbow
						{
							OFFSET -0.254763 -0.014219 -0.020321
							CHANNELS 3 Zrotation Yrotation Xrotation
							JOINT Right_wrist
							{
								OFFSET -0.256597 0.009233 -0.005063
								CHANNELS 3 Zrotation Yrotation Xrotation
								JOINT Right_palm
								{
									OFFSET -0.080528 -0.007219 -0.010379
									CHANNELS 3 Zrotation Yrotation Xrotation
									End Site
									{
										OFFSET 0.000000 0.000000 0.000000
									}
								}
							}
						}
					}
				}
			}
		}
	}
}
MOTION
Frames: 7
Frame Time: 0.100000
0.180130 0.393133 -0.356606 172.707741 26.937513 -49.002652 16.539738 8.406514 -35.735158 -6.976577 13.057473 83.253183 -1.263252 17.014239 -13.818547 10.687243 9.959721 -7.387143 -16.189351 -11.655877 -36.065460 -3.915087 -14.428887 81.398140 -0.227316 -9.514441 -2.964695 -11.358021 -9.942307 -6.029968 0.629901 -2.012157 29.953244 -2.556536 -6.504810 19.493772 -0.387984 0.876291 -0.195158 -5.214903 -21.659385 35.505320 18.527496 2.797345 -11.330584 -27.725691 -31.384975 12.862100 -41.054939 -17.754079 15.295249 -138.566114 -85.766332 169.454427 29.458363 -15.142866 -5.070942 -20.344788 -6.529364 -4.641396 -10.411006 20.152010 -2.776251 3.035651 -3.730399 -16.134184 163.671803 54.743805 -175.717659 -19.317997 22.638211 -4.146917 25.287378 5.393140 -1.624112 
0.174744 0.393892 -0.356084 172.315674 24.736281 -49.535099 18.249826 9.490383 -34.997028 -6.865701 12.748079 83.985734 -1.639807 17.128823 -14.417687 11.321420 9.831520 -7.621169 -15.017635 -10.972780 -35.466567 -3.335826 -15.019879 81.005930 -0.773521 -8.967505 -2.891912 -10.663055 -10.333632 -6.186347 -0.156782 -2.179795 30.118880 -1.694565 -6.840334 19.961653 0.157385 0.323924 -0.094367 -4.180248 -19.797415 35.091008 17.046794 2.709459 -11.523851 -25.703914 -30.595228 12.166191 -41.899216 -18.136182 15.303877 -144.321440 -85.923189 174.475693 31.074620 -14.388000 -7.305117 -20.353207 -5.669828 -5.028510 -10.746939 20.591807 -3.339234 4.191299 -0.792824 -14.965555 165.464022 56.846298 -176.528511 -22.041740 21.159081 -12.862990 24.925320 3.804406 0.081266 
0.167297 0.394026 -0.356923 172.005512 22.530661 -49.509102 19.373228 9.768635 -34.974944 -6.379343 12.707527 84.676463 -0.591610 17.434769 -14.407344 9.603629 10.594329 -7.918709 -14.089041 -10.846808 -35.492324 -2.726096 -15.480825 80.608084 -1.445419 -8.261564 -2.606943 -9.521990 -10.872544 -5.594161 -0.539984 -2.236308 29.909628 -1.047873 -6.922392 19.713588 0.634012 0.259999 0.017545 -3.068173 -18.780711 34.439719 16.114460 3.190652 -11.852586 -24.046850 -30.804827 11.877165 -42.835335 -18.220507 14.464447 -150.852286 -85.814290 -178.093838 26.738857 -12.022420 -4.191549 -20.248858 -5.898865 -5.566525 -11.159859 20.672658 -3.309927 4.225002 1.085635 -16.609658 165.005167 63.209334 -175.055046 -15.907126 17.444665 -6.220882 25.135664 4.533377 -1.066786 
0.164082 0.393253 -0.356635 170.656898 22.085623 -49.821074 20.045491 9.640739 -35.455020 -6.053600 12.079315 85.068880 -0.800857 17.210786 -13.998117 9.800924 11.318443 -8.202718 -13.665614 -10.872330 -34.866597 -2.958566 -16.492702 80.276921 -1.636957 -7.236170 -2.570677 -8.985248 -11.927952 -5.436913 -0.222091 -1.973649 29.966047 -0.514649 -6.851485 19.527213 1.516927 0.197605 -0.245426 -2.153109 -13.322102 32.575238 14.598692 7.233671 -15.557064 -25.544598 -31.544832 12.400880 -42.323804 -16.777893 13.641736 -158.939775 -85.374447 -169.454260 25.156733 -13.977459 -3.452896 -21.008315 -5.981770 -5.445290 -9.636143 20.316102 -2.727433 4.555418 -2.213532 -17.030146 164.722232 60.028862 -172.988320 -12.417400 19.962204 -1.593060 26.525142 4.814098 -1.621123 
0.163536 0.394863 -0.357348 170.465072 21.512758 -50.869372 20.542204 9.980096 -34.639888 -6.567217 11.565689 85.229839 -2.820249 18.008733 -14.766408 14.316115 9.615496 -8.087265 -13.309049 -9.772611 -33.915283 -2.880519 -16.691907 79.972683 -1.187412 -7.553346 -2.026411 -10.816932 -11.660262 -7.322533 -0.122431 -1.860160 30.503063 -0.470506 -6.443679 20.169394 2.053830 0.152955 -0.301023 -2.517258 -5.216806 29.157352 11.403376 12.603749 -20.043326 -25.200590 -30.586533 11.151965 -42.204148 -17.094111 14.751434 -159.865054 -85.108683 -170.922932 25.571786 -14.620686 -8.590547 -22.792767 -5.819871 -7.173235 -9.365991 20.541534 -3.422796 6.962845 -1.116114 -14.096995 173.445038 57.778522 -174.686110 -12.172668 20.807884 -25.032307 27.381509 3.173246 0.798487 
0.164949 0.395673 -0.361246 169.945045 21.504232 -51.632721 20.900924 10.511976 -34.585970 -6.782306 11.453008 84.927759 -3.184713 17.844316 -13.915933 15.217308 9.398256 -8.577822 -12.597624 -9.073600 -33.532498 -3.042161 -16.295099 79.372041 -1.481667 -8.116645 -1.260956 -10.891033 -11.679578 -7.800783 -0.012270 -1.965912 30.738784 -0.309726 -6.166333 20.276005 2.259241 0.410393 -0.365622 -2.662863 -2.340899 26.709101 9.408499 13.817201 -22.827210 -24.167531 -30.826336 10.599940 -42.623041 -17.497896 14.859261 -158.902643 -85.411494 -171.575311 25.993471 -13.003624 -9.253787 -22.961189 -5.836071 -7.470540 -9.443982 21.612726 -3.660345 7.892055 1.896827 -14.293578 177.958768 61.171505 -171.909591 -13.430839 17.878447 -28.849181 27.715043 3.092711 1.017384 
0.169116 0.394716 -0.365262 169.180677 22.391000 -51.394760 21.108647 11.233156 -35.603439 -6.899029 11.781483 84.336020 -3.056373 16.173959 -12.414675 13.987149 10.278827 -9.591342 -12.450644 -9.232687 -33.945034 -3.743454 -16.294905 78.866569 -0.805998 -8.218832 -0.813689 -12.197526 -11.908823 -7.329541 0.145032 -1.967282 30.879816 -0.200426 -5.983659 19.115826 2.614257 0.773259 -0.387982 -3.135943 -1.997913 25.048497 9.335348 13.192714 -25.585591 -23.721930 -32.082105 10.881849 -43.517756 -16.513702 14.377790 -159.233978 -84.996381 -169.161491 24.761334 -13.520067 -7.847093 -22.757534 -6.138713 -7.433278 -9.411465 22.758524 -3.661731 8.778643 2.274118 -16.675118 -177.783053 62.499168 -164.254953 -13.296724 18.031958 -22.285993 28.002298 3.639617 -0.114873 
